<svg width="118" height="31" viewBox="0 0 118 31" fill="none" xmlns="http://www.w3.org/2000/svg">
<path d="M27.1162 13.7409C21.6244 10.7741 12.5652 10.5004 7.32297 11.9481C6.48159 12.1806 5.59037 11.7481 5.33541 10.9825C5.081 10.2163 5.55563 9.40718 6.39781 9.17383C12.4163 7.51219 22.4208 7.83287 28.7427 11.2478C29.5001 11.6561 29.7487 12.5459 29.3 13.2336C28.8509 13.9227 27.8721 14.1499 27.1162 13.7409M26.9365 18.1359C26.5513 18.7045 25.7335 18.8831 25.1092 18.5337C20.5302 15.9728 13.5494 15.231 8.13226 16.728C7.42935 16.9207 6.68738 16.5604 6.47443 15.9225C6.26233 15.2833 6.65949 14.6096 7.36046 14.4153C13.5484 12.7071 21.2407 13.534 26.4999 16.4743C27.124 16.8241 27.321 17.5679 26.9365 18.1359ZM24.8521 22.357C24.5456 22.8129 23.892 22.9565 23.3919 22.6776C19.3906 20.4537 14.3553 19.9507 8.42444 21.1838C7.85288 21.3024 7.28361 20.9765 7.1528 20.4571C7.022 19.9373 7.37927 19.4188 7.95152 19.2997C14.4412 17.9506 20.0085 18.531 24.4994 21.0278C25.0003 21.3055 25.1579 21.9015 24.8521 22.357M17.0377 -1.09358e-06C7.6287 -1.09358e-06 0 6.93953 0 15.4996C0 24.0615 7.6287 31 17.0377 31C26.4478 31 34.0752 24.0615 34.0752 15.4996C34.0752 6.93953 26.4478 -1.09358e-06 17.0377 -1.09358e-06Z" fill="white"/>
<path d="M38.9558 21.0643L40.6416 18.9495C41.793 20.0878 43.6587 21.1114 46.0347 21.1114C48.4869 21.1114 49.4338 20.0182 49.4338 18.9722C49.4338 15.7176 39.5183 17.74 39.5183 12.0439C39.5183 9.46306 41.9712 7.48677 45.728 7.48677C48.3598 7.48677 50.5324 8.27729 52.0913 9.67199L50.4042 11.6949C49.0503 10.4631 47.2358 9.90495 45.4464 9.90495C43.7098 9.90495 42.5847 10.6954 42.5847 11.8347C42.5847 14.7409 52.4999 12.9509 52.4999 18.7168C52.4999 21.2972 50.4814 23.5301 45.9058 23.5301C42.7635 23.5301 40.4894 22.506 38.9558 21.0643" fill="white"/>
<path d="M64.5112 17.6237C64.5112 15.4379 63.131 13.9037 61.0105 13.9037C59.7579 13.9037 58.4551 14.5546 57.8414 15.3917V19.8324C58.4293 20.6688 59.7579 21.3671 61.0105 21.3671C63.131 21.3671 64.5112 19.8096 64.5112 17.6237ZM57.8414 21.6924V27.5276H55.1584V12.0209H57.8414V13.5547C58.7617 12.4396 60.1922 11.7412 61.8022 11.7412C64.9965 11.7412 67.2713 13.9268 67.2713 17.6237C67.2713 21.3198 64.9965 23.5294 61.8022 23.5294C60.2426 23.5294 58.8636 22.8778 57.8414 21.6924" fill="white"/>
<path d="M79.1044 17.6237C79.1044 15.6473 77.8517 13.9037 75.5525 13.9037C73.2774 13.9037 71.9999 15.6473 71.9999 17.6237C71.9999 19.6232 73.2774 21.3671 75.5525 21.3671C77.8517 21.3671 79.1044 19.6232 79.1044 17.6237ZM69.2144 17.6237C69.2144 14.3919 71.616 11.7412 75.5525 11.7412C79.4869 11.7412 81.8906 14.3919 81.8906 17.6237C81.8906 20.8326 79.4869 23.5294 75.5525 23.5294C71.616 23.5294 69.2144 20.8326 69.2144 17.6237Z" fill="white"/>
<path d="M85.1871 20.623V14.1357H83.1425V12.0205H85.1871V8.95124H87.8696V12.0205H90.3743V14.1357H87.8696V20.0182C87.8696 20.7861 88.2791 21.3671 89.0448 21.3671C89.5573 21.3671 90.0159 21.1563 90.2207 20.9487L90.8591 22.808C90.3743 23.2041 89.5809 23.5294 88.3558 23.5294C86.2607 23.5294 85.1871 22.5067 85.1871 20.623" fill="white"/>
<path d="M92.7766 12.0205H95.4597V23.2497H92.7766V12.0205ZM92.4695 9.13808C92.4695 8.30087 93.211 7.62589 94.131 7.62589C95.0509 7.62589 95.7918 8.30087 95.7918 9.13808C95.7918 9.97491 95.0509 10.6483 94.131 10.6483C93.211 10.6483 92.4695 9.97491 92.4695 9.13808Z" fill="white"/>
<path d="M99.6004 23.2497V14.1357H97.5557V12.0209H99.6004V11.3923C99.6004 8.95168 101.159 7.50941 103.485 7.50941C104.609 7.50941 105.708 7.76597 106.448 8.48683L105.401 9.99713C105.043 9.69582 104.583 9.50974 103.995 9.50974C102.922 9.50974 102.283 10.1376 102.283 11.3923V12.0209H104.787V14.1357H102.283V23.2497H99.6004" fill="white"/>
<path d="M106.704 25.4584C106.986 25.575 107.419 25.6448 107.726 25.6448C108.596 25.6448 109.159 25.4115 109.517 24.6686L110.128 23.3892L105.043 12.0206H107.93L111.534 20.4377L115.137 12.0206H118L112.045 25.274C111.202 27.1796 109.745 27.7836 107.828 27.8069C107.445 27.8069 106.679 27.7367 106.321 27.6439L106.704 25.4584Z" fill="white"/>
</svg>
